<svg xmlns="http://www.w3.org/2000/svg" version="1.1" xmlns:xlink="http://www.w3.org/1999/xlink" xmlns:svgjs="http://svgjs.com/svgjs" width="512" height="512" x="0" y="0" viewBox="0 0 426.667 426.667" style="enable-background:new 0 0 512 512" xml:space="preserve" class=""><g><path d="M320 149.333V0H106.667v149.333H0v277.333h170.667V320H256v106.667h170.667V149.333H320zM85.333 320H42.667v-42.667h42.667V320zm0-85.333H42.667V192h42.667v42.667zm85.334 0H128V192h42.667v42.667zm64-106.667v42.667H192V128h-42.667V85.333H192V42.667h42.667v42.667h42.667V128h-42.667zm64 106.667H256V192h42.667v42.667zM384 320h-42.667v-42.667H384V320zm0-85.333h-42.667V192H384v42.667z" fill="#515151" data-original="#000000" class=""></path></g></svg>