<svg xmlns="http://www.w3.org/2000/svg" version="1.1" xmlns:xlink="http://www.w3.org/1999/xlink" xmlns:svgjs="http://svgjs.com/svgjs" width="512" height="512" x="0" y="0" viewBox="0 0 512 512" style="enable-background:new 0 0 512 512" xml:space="preserve" class=""><g transform="matrix(1,0,0,1,45,0)"><path fill="#FF415B" d="M210 512a15.003 15.003 0 0 1-13.418-8.293l-46.14-92.281C61.52 385.21 0 303.359 0 210 0 94.207 94.207 0 210 0s210 94.207 210 210c0 93.363-61.52 175.215-150.445 201.43l-46.14 92.277A14.997 14.997 0 0 1 210 512zm0 0" data-original="#ff415b" class=""></path><path fill="#B20042" d="M210 0c-.043 0-.082.004-.125.004v511.992c.043 0 .082.004.125.004 5.68 0 10.875-3.21 13.414-8.293l46.14-92.277C358.48 385.215 420 303.363 420 210 420 94.207 325.793 0 210 0zm0 0" data-original="#b20042" class=""></path><path fill="#F3EEE9" d="M210 265c-25.191 0-48.797 73.063-69 61-39.496-23.582-66-66.754-66-116 0-74.438 60.563-135 135-135s135 60.563 135 135c0 50.484-27.855 94.582-69 117.738C256.477 338.727 233.957 265 210 265zm0 0" data-original="#f3eee9" class=""></path><path fill="#E9DFDA" d="M210 75c-.043 0-.082.004-.125.004v190.004c.043 0 .082-.008.125-.008 23.957 0 46.477 73.727 66 62.738 41.145-23.156 69-67.254 69-117.738 0-74.437-60.563-135-135-135zm0 0" data-original="#e9dfda" class=""></path><path fill="#FDD1A3" d="M210 210c-24.813 0-45-20.188-45-45s20.188-45 45-45 45 20.188 45 45-20.188 45-45 45zm0 0" data-original="#fdd1a3"></path><path fill="#3AAAFF" d="M209.262 240.004c-41.29.398-74.262 34.66-74.262 75.953 0 3.992 2.098 7.688 5.52 9.746C160.828 337.95 184.605 345 210 345s49.172-7.05 69.48-19.297a11.376 11.376 0 0 0 5.52-9.746V315c0-41.602-34.047-75.398-75.738-74.996zm0 0" data-original="#3aaaff"></path><path fill="#FFBB85" d="M210 120c-.043 0-.082.004-.125.004v89.992c.043 0 .082.004.125.004 24.813 0 45-20.188 45-45s-20.188-45-45-45zm0 0" data-original="#ffbb85" class=""></path><path fill="#008ADF" d="M209.875 240.012v104.984c.043 0 .082.004.125.004 25.395 0 49.172-7.055 69.48-19.297a11.376 11.376 0 0 0 5.52-9.746V315c0-41.395-33.715-75.055-75.125-74.988zm0 0" data-original="#008adf"></path></g></svg>