<svg xmlns="http://www.w3.org/2000/svg" version="1.1" xmlns:xlink="http://www.w3.org/1999/xlink" xmlns:svgjs="http://svgjs.com/svgjs" width="512" height="512" x="0" y="0" viewBox="0 0 512 512" style="enable-background:new 0 0 512 512" xml:space="preserve" class=""><g><path fill="#146BCB" d="M469.419 469.395c36.223-36.219 36.223-94.941 0-131.16L173.757 42.604c-36.223-36.219-94.953-36.219-131.176 0-36.223 36.219-36.223 94.941 0 131.16l295.662 295.631c36.223 36.219 94.952 36.22 131.176 0z" data-original="#b8daff" class=""></path><path d="M469.423 469.423a90.018 90.018 0 0 1-15.522 12.417c23.127-35.855 18.936-84.205-12.417-115.636L145.796 70.593C114.287 39.084 65.859 34.971 30.004 58.254c3.492-5.588 7.683-10.788 12.573-15.677 36.243-36.165 94.993-36.165 131.159 0l295.688 295.688c36.242 36.166 36.242 94.915-.001 131.158z" opacity=".15" fill="#000000" data-original="#000000" class=""></path><path fill="#146BCB" d="M469.396 42.581c-36.219-36.223-94.941-36.223-131.16 0L42.604 338.243c-36.219 36.223-36.219 94.953 0 131.176s94.941 36.223 131.16 0l295.631-295.662c36.219-36.223 36.22-94.953.001-131.176z" data-original="#b8daff" class=""></path><path d="M469.423 173.735 173.735 469.423c-36.166 36.243-94.916 36.243-131.159 0-4.889-4.967-9.158-10.322-12.728-15.987 35.855 22.662 83.817 18.393 115.094-12.806l295.611-295.688c31.276-31.276 35.544-79.316 12.805-115.171a92.381 92.381 0 0 1 16.065 12.806c36.166 36.243 36.166 94.992 0 131.158z" opacity=".15" fill="#000000" data-original="#000000" class=""></path><path fill="#FBFBFB" d="m348.358 245.298-103.06 103.06c-2.732 2.732-7.146 2.732-9.949 0l-71.672-71.742a6.978 6.978 0 0 1 0-9.879l103.059-103.13a6.978 6.978 0 0 1 9.879 0l71.742 71.742c2.733 2.733 2.733 7.217.001 9.949z" data-original="#fbfbfb" class=""></path><path d="M348.354 245.29 245.29 348.354c-2.716 2.716-7.14 2.716-9.934 0l-25.533-25.533c2.794 2.717 7.218 2.717 9.934 0l103.064-103.064c2.717-2.717 2.717-7.218 0-9.934l25.533 25.533c2.716 2.716 2.716 7.218 0 9.934z" opacity=".15" fill="#000000" data-original="#000000" class=""></path><g fill="#3F8CF4"><path d="m116.61 256.001-78.118 78.126C.059 372.56.059 435.101 38.492 473.534c18.614 18.618 43.367 28.872 69.696 28.872s51.075-10.254 69.688-28.872l78.131-78.139 78.139 78.143c38.391 38.391 100.92 38.389 139.392 0 38.544-38.536 38.542-100.933 0-139.388l-78.148-78.152 78.118-78.126c38.433-38.433 38.433-100.974 0-139.407-18.614-18.618-43.366-28.872-69.688-28.872-26.329 0-51.082 10.254-69.696 28.872l-78.131 78.139-78.139-78.143C139.466.078 76.94.07 38.461 38.461c-38.544 38.536-38.542 100.933 0 139.388zm348.706 86.384c33.701 33.639 34.244 88.66 0 122.919-33.939 33.851-89.091 33.863-122.938.004l-78.14-78.143L387.16 264.229zM342.355 46.696c16.416-16.42 38.243-25.461 61.465-25.461 23.214 0 45.042 9.042 61.458 25.461 33.893 33.897 33.893 89.049 0 122.946l-213.35 213.372c-.013.012-.03.016-.043.028s-.016.03-.028.043l-82.211 82.219c-16.416 16.42-38.243 25.461-61.458 25.461-23.222 0-45.049-9.042-61.465-25.461-33.893-33.897-33.893-89.049 0-122.946l213.35-213.372c.013-.012.03-.016.043-.028.013-.013.016-.03.028-.043zm-295.671 0c33.931-33.859 89.083-33.867 122.938-.004l78.14 78.143L124.84 247.771l-78.156-78.156c-33.701-33.639-34.243-88.66 0-122.919z" fill="#3F8CF4" data-original="#3f8cf4" class=""></path><path d="M159.565 262.616a12.719 12.719 0 0 0-3.759 9.061c0 3.418 1.334 6.635 3.759 9.053l71.72 71.796a12.96 12.96 0 0 0 9.064 3.672c3.289 0 6.579-1.243 9.064-3.725l103.059-103.059a12.746 12.746 0 0 0 3.759-9.087c0-3.445-1.334-6.673-3.759-9.091l-71.735-71.739c-4.843-4.854-13.301-4.843-18.114-.004zm112.116-95.24c.212 0 .531.061.819.349l71.742 71.746c.288.284.349.621.349.856 0 .231-.061.568-.349.853v.004L241.183 344.238c-.47.485-1.235.466-1.72.004l-71.667-71.746a1.145 1.145 0 0 1 0-1.645L270.862 167.72c.281-.284.599-.344.819-.344zM421.767 69.565a5.818 5.818 0 0 0 4.115-1.701l4.691-4.684a5.826 5.826 0 0 0 .008-8.231 5.829 5.829 0 0 0-8.238-.008l-4.691 4.684a5.818 5.818 0 0 0 0 8.231 5.78 5.78 0 0 0 4.115 1.709zM448.255 96.05a5.792 5.792 0 0 0 4.115-1.705l4.684-4.684c2.274-2.274 2.274-5.957 0-8.231s-5.957-2.274-8.231 0l-4.684 4.684a5.818 5.818 0 0 0 0 8.231 5.798 5.798 0 0 0 4.116 1.705zM375.952 88.895a5.818 5.818 0 0 0 4.115-1.701l4.691-4.688a5.823 5.823 0 0 0-8.231-8.239l-4.691 4.688a5.822 5.822 0 0 0 0 8.234 5.795 5.795 0 0 0 4.116 1.706zM402.441 115.38a5.792 5.792 0 0 0 4.115-1.705l4.684-4.688a5.823 5.823 0 0 0 0-8.235c-2.281-2.27-5.965-2.266-8.231.004l-4.684 4.688a5.823 5.823 0 0 0 0 8.235 5.82 5.82 0 0 0 4.116 1.701zM424.806 131.925a5.823 5.823 0 0 0 8.23 8.239l4.691-4.688a5.823 5.823 0 0 0-8.231-8.239zM330.145 108.226a5.794 5.794 0 0 0 4.115-1.705l4.684-4.688a5.823 5.823 0 0 0 0-8.235c-2.281-2.27-5.965-2.266-8.231.004l-4.684 4.688a5.823 5.823 0 0 0 0 8.235 5.825 5.825 0 0 0 4.116 1.701zM356.626 134.706a5.818 5.818 0 0 0 4.115-1.701l4.691-4.684a5.818 5.818 0 0 0 0-8.231c-2.266-2.277-5.949-2.277-8.231-.008l-4.691 4.684a5.826 5.826 0 0 0-.008 8.231 5.815 5.815 0 0 0 4.124 1.709zM378.999 151.255a5.818 5.818 0 0 0 0 8.231c1.137 1.137 2.622 1.705 4.115 1.705s2.979-.568 4.115-1.705l4.684-4.684c2.274-2.274 2.274-5.957 0-8.231s-5.957-2.274-8.231 0zM405.48 177.736a5.818 5.818 0 0 0 0 8.231 5.781 5.781 0 0 0 4.115 1.709 5.818 5.818 0 0 0 4.115-1.701l4.691-4.684a5.826 5.826 0 0 0 .008-8.231 5.828 5.828 0 0 0-8.238-.008zM310.811 154.037a5.817 5.817 0 0 0 4.115-1.701l4.691-4.688a5.823 5.823 0 0 0-8.231-8.239l-4.691 4.688a5.823 5.823 0 0 0 4.116 9.94zM333.184 170.585a5.823 5.823 0 0 0 0 8.235 5.82 5.82 0 0 0 4.115 1.701 5.792 5.792 0 0 0 4.115-1.705l4.684-4.688c2.274-2.274 2.274-5.961 0-8.235s-5.957-2.262-8.231.004zM359.665 197.066a5.823 5.823 0 0 0 8.23 8.239l4.691-4.688a5.823 5.823 0 0 0-8.231-8.239zM86.118 444.136l-4.691 4.684a5.826 5.826 0 0 0-.008 8.231 5.811 5.811 0 0 0 4.123 1.709 5.818 5.818 0 0 0 4.115-1.701l4.691-4.684a5.818 5.818 0 0 0 0-8.231 5.817 5.817 0 0 0-8.23-.008zM59.629 417.655l-4.684 4.684a5.818 5.818 0 0 0 0 8.231c1.137 1.137 2.622 1.705 4.115 1.705s2.979-.568 4.115-1.705l4.684-4.684a5.818 5.818 0 0 0 0-8.231 5.819 5.819 0 0 0-8.23 0zM131.933 424.806l-4.691 4.688a5.823 5.823 0 0 0 8.23 8.239l4.691-4.688a5.823 5.823 0 0 0-8.23-8.239zM105.444 398.325l-4.684 4.688a5.823 5.823 0 0 0 0 8.235 5.82 5.82 0 0 0 4.115 1.701 5.792 5.792 0 0 0 4.115-1.705l4.684-4.688a5.823 5.823 0 0 0 0-8.235 5.825 5.825 0 0 0-8.23.004zM87.194 380.075a5.823 5.823 0 0 0-8.231-8.239l-4.691 4.688a5.823 5.823 0 0 0 8.23 8.239zM177.74 405.48l-4.684 4.688a5.823 5.823 0 0 0 0 8.235 5.82 5.82 0 0 0 4.115 1.701 5.792 5.792 0 0 0 4.115-1.705l4.684-4.688a5.823 5.823 0 0 0 0-8.235 5.824 5.824 0 0 0-8.23.004zM151.259 378.991l-4.691 4.688a5.823 5.823 0 0 0 8.23 8.239l4.691-4.688a5.823 5.823 0 0 0-8.23-8.239zM133.001 360.741a5.823 5.823 0 0 0 0-8.235c-2.281-2.27-5.965-2.266-8.231.004l-4.684 4.688a5.823 5.823 0 0 0 0 8.235 5.82 5.82 0 0 0 4.115 1.701 5.792 5.792 0 0 0 4.115-1.705zM106.52 334.264a5.818 5.818 0 0 0 0-8.231c-2.266-2.277-5.949-2.277-8.231-.008l-4.691 4.684a5.826 5.826 0 0 0-.008 8.231 5.811 5.811 0 0 0 4.123 1.709 5.818 5.818 0 0 0 4.115-1.701zM197.074 359.665l-4.691 4.688a5.823 5.823 0 0 0 8.23 8.239l4.691-4.688a5.823 5.823 0 0 0-8.23-8.239zM178.816 341.415a5.823 5.823 0 0 0 0-8.235c-2.281-2.27-5.965-2.266-8.231.004l-4.684 4.688a5.823 5.823 0 0 0 0 8.235 5.82 5.82 0 0 0 4.115 1.701 5.792 5.792 0 0 0 4.115-1.705zM152.335 314.934a5.823 5.823 0 0 0-8.231-8.239l-4.691 4.688a5.823 5.823 0 0 0 8.23 8.239z" fill="#3F8CF4" data-original="#3f8cf4" class=""></path></g></g></svg>