<svg xmlns="http://www.w3.org/2000/svg" version="1.1" xmlns:xlink="http://www.w3.org/1999/xlink" xmlns:svgjs="http://svgjs.com/svgjs" width="512" height="512" x="0" y="0" viewBox="0 0 60 59" style="enable-background:new 0 0 512 512" xml:space="preserve" class=""><g><g fill="none" fill-rule="nonzero"><rect width="8" height="20" x="6" y="22" fill="#607D8B" rx="2" data-original="#607d8b"></rect><path fill="#37474F" d="M12 22H9a2 2 0 0 1 2 2v16a2 2 0 0 1-2 2h3a2 2 0 0 0 2-2V24a2 2 0 0 0-2-2z" data-original="#37474f"></path><path fill="#F44335" d="M4 25h2v14H4a3 3 0 0 1-3-3v-8a3 3 0 0 1 3-3z" data-original="#f44335"></path><path fill="#C81E1E" d="M4 25c-.341.003-.68.065-1 .184v13.632c.32.119.659.18 1 .184h2V25z" data-original="#c81e1e"></path><rect width="8" height="20" x="46" y="22" fill="#607D8B" rx="2" transform="rotate(180 50 32)" data-original="#607d8b"></rect><path fill="#37474F" d="M52 22h-3a2 2 0 0 1 2 2v16a2 2 0 0 1-2 2h3a2 2 0 0 0 2-2V24a2 2 0 0 0-2-2z" data-original="#37474f"></path><path fill="#F44335" d="M56 39h-2V25h2a3 3 0 0 1 3 3v8a3 3 0 0 1-3 3z" data-original="#f44335"></path><path fill="#C81E1E" d="M56 25h-2v.184A2.99 2.99 0 0 1 56 28v8a2.99 2.99 0 0 1-2 2.816V39h2a3 3 0 0 0 3-3v-8a3 3 0 0 0-3-3z" data-original="#c81e1e"></path><path fill="#F44335" d="M51.97 22C51.444 10.248 41.763.991 30 .991S8.556 10.248 8.03 22h4C12.58 12.478 20.462 5.039 30 5.039S47.42 12.479 47.97 22z" data-original="#f44335"></path><rect width="16" height="6" x="22" y="52" fill="#607D8B" rx="3" data-original="#607d8b"></rect><path fill="#37474F" d="M35 52h-3a3 3 0 0 1 0 6h3a3 3 0 0 0 0-6z" data-original="#37474f"></path><path fill="#000000" d="M56 24h-1a2.994 2.994 0 0 0-2.106-2.849C51.946 9.209 41.979.002 30 .002S8.054 9.21 7.106 21.151A2.994 2.994 0 0 0 5 24H4a4 4 0 0 0-4 4v8a4 4 0 0 0 4 4h1a3 3 0 0 0 3 3h1v4a9.01 9.01 0 0 0 9 9h3.142A4 4 0 0 0 25 59h10a4 4 0 1 0 0-8H25a4 4 0 0 0-3.858 3H18a7.008 7.008 0 0 1-7-7v-4h1a3 3 0 0 0 3-3V24a3 3 0 0 0-1.885-2.78C14.015 12.57 21.304 6 30 6s15.986 6.57 16.885 15.22A3 3 0 0 0 45 24v16a3 3 0 0 0 3 3h4a3 3 0 0 0 3-3h1a4 4 0 0 0 4-4v-8a4 4 0 0 0-4-4zM25 53h10a2 2 0 1 1 0 4H25a2 2 0 1 1 0-4zM4 38a2 2 0 0 1-2-2v-8a2 2 0 0 1 2-2h1v12zm9 2a1 1 0 0 1-1 1H8a1 1 0 0 1-1-1V24a1 1 0 0 1 1-1h4a1 1 0 0 1 1 1zM30 4c-9.713.004-17.856 7.34-18.87 17h-2C10.142 10.229 19.184 1.997 30.003 1.997S49.863 10.229 50.876 21h-2C47.862 11.338 39.716 4 30 4zm23 36a1 1 0 0 1-1 1h-4a1 1 0 0 1-1-1V24a1 1 0 0 1 1-1h4a1 1 0 0 1 1 1zm5-4a2 2 0 0 1-2 2h-1V26h1a2 2 0 0 1 2 2z" data-original="#000000"></path></g></g></svg>