<svg xmlns="http://www.w3.org/2000/svg" version="1.1" xmlns:xlink="http://www.w3.org/1999/xlink" xmlns:svgjs="http://svgjs.com/svgjs" width="512" height="512" x="0" y="0" viewBox="0 0 511.999 511.999" style="enable-background:new 0 0 512 512" xml:space="preserve" class=""><g><circle cx="256" cy="255.998" r="255.998" style="" fill="#FF5B62" data-original="#ff5b62"></circle><path d="M220.318 249.429h71.353l.39 4.877-34.87 52.863-37.458-53.385.584-4.352.001-.003z" style="" fill="#B3B3B3" data-original="#b3b3b3"></path><path d="m220.778 236.169-.618 29.819-50.59 27.664v101.405h170.317V293.651l-47.016-29.223-2.582-29.814-69.51 1.554h-.001z" style="" fill="#F0BA7D" data-original="#f0ba7d"></path><path d="M197.401 149.212s-2.901-6.374-10.689-3.215c-7.79 3.155.35 34.651 3.327 39.045 2.974 4.392 7.763 1.603 9.507 1.429 2.48 18.776 2.701 31.717 10.217 39.634 7.119 7.496 23.417 22.773 32.003 28.101 5.815 1.228 10.153 1.949 14.234 2.165 4.079-.216 8.421-.939 14.234-2.165 8.585-5.325 24.886-20.605 32.003-28.101 7.514-7.917 7.737-20.855 10.217-39.634 1.744.175 6.533 2.963 9.507-1.429 2.976-4.394 11.117-35.891 3.327-39.045-7.79-3.16-10.689 3.215-10.689 3.215s7.699-24.733-5.986-49.078c-9.378-16.686-30.767-25.34-52.612-25.975-21.845.635-43.234 9.289-52.612 25.975-13.685 24.346-5.986 49.078-5.986 49.078h-.002z" style="" fill="#FED298" data-original="#fed298" class=""></path><path d="m195.351 274.76 12.115-4.772 9.763-8.773 34.472 26.145h8.585l34.483-26.176 21.874 13.579 38.011 64.61-30.103 163.323c-21.821 6.052-44.809 9.3-68.558 9.3a256.89 256.89 0 0 1-56.368-6.24L145.67 344.535l49.678-69.774.003-.001z" style="" fill="#15BDB2" data-original="#15bdb2" class=""></path><path d="m305.588 266.591-13.917-17.162-31.381 37.932 26.936 29.93 18.362-50.7zM206.384 266.289l13.935-16.86 31.383 37.932-28.006 29.622-17.312-50.694z" style="" fill="#21D0C3" data-original="#21d0c3" class=""></path><path d="m206.386 266.289-92.244 29.997c-3.751 1.217-6.107 4.407-6.871 8.279L80.146 442.023a256.584 256.584 0 0 0 61.813 43.21l13.485-44.009c.157-.505.637-.82 1.162-.757.523.062.921.481.95 1.01l1.947 51.688c29.781 12.135 62.355 18.831 96.499 18.831v-17.162L206.388 266.29l-.002-.001z" style="" fill="#FFFFFF" data-original="#ffffff"></path><path d="m206.386 266.289-10.565 3.246-27.99 47.759 35.335 1.107-21.693 12.351 74.53 164.084-49.614-228.545-.003-.002z" style="" fill="#EEF3F7" data-original="#eef3f7" class=""></path><path d="m305.588 266.591 92.272 29.695c3.757 1.209 6.105 4.407 6.869 8.279l27.126 137.46a256.662 256.662 0 0 1-61.817 43.212l-13.487-44.011a1.075 1.075 0 0 0-1.162-.757 1.072 1.072 0 0 0-.948 1.01l-1.942 51.688c-29.781 12.135-62.355 18.831-96.497 18.831H256v-17.162l49.587-228.242.001-.003z" style="" fill="#EEF3F7" data-original="#eef3f7" class=""></path><path d="m305.588 266.591 5.865 1.784 32.693 49.22-35.335 1.109 21.695 12.352L256 494.836l49.587-228.242v-.002h.001z" style="" fill="#FFFFFF" data-original="#ffffff"></path><path d="M266.455 493.762c-3.111 0-5.633 2.516-5.633 5.616 0 3.105 2.524 5.62 5.633 5.62s5.633-2.516 5.633-5.62c0-3.102-2.524-5.616-5.633-5.616z" style="" fill="#D9DADA" data-original="#d9dada" class=""></path><path d="m307.877 156.576 5.428-.19 1.747-6.194 5.113-5.102c3.377-25.428 4.372-65.003-20.867-63.861 0 0-2.276-28.856-47.801-23.2-45.528 5.658-66.098 35.048-63.647 59.568 2.449 24.52 1.462 27.49 1.462 27.49l5.113 5.104.771 7.046 4.465-.282s1.4-9.431 2.801-13.579c1.402-4.147.963-12.543.963-12.543s53.774 3.426 68.306-15.059c8.975-11.415 29.587-31.194 30.625-3.802.308 8.123-2.712 20.298 3.067 29.159 5.781 8.862 2.452 15.443 2.452 15.443h.002v.002z" style="" fill="#666666" data-original="#666666" class=""></path><path d="m256 494.834 14.536-66.904-9.878-131.88 5.382-2.297-5.753-6.391h-8.585l-5.9 6.242 5.538 2.447-9.631 132.947 14.292 65.837-.001-.001z" style="" fill="#0F7986" data-original="#0f7986" class=""></path><path d="M265.954 493.762c-2.833 0-5.133 2.29-5.133 5.115a5.127 5.127 0 0 0 5.133 5.12c2.831 0 5.133-2.291 5.133-5.12 0-2.824-2.302-5.115-5.133-5.115z" style="" fill="#FFFFFF" data-original="#ffffff"></path><path d="M346.395 409.066c-9.99-1.725-16.69-11.223-14.967-21.21 1.725-9.988 11.223-16.693 21.21-14.969 9.99 1.725 16.69 11.225 14.967 21.215-1.725 9.987-11.223 16.69-21.212 14.965l.002-.001z" style="" fill="#FEFEFE" data-original="#fefefe" class=""></path><path d="M346.576 408.012c-9.408-1.625-15.718-10.565-14.093-19.976 1.625-9.409 10.568-15.72 19.978-14.097 9.408 1.625 15.718 10.57 14.093 19.978-1.625 9.411-10.568 15.718-19.978 14.093v.002z" style="" fill="#0F7986" data-original="#0f7986" class=""></path><path d="M347.89 400.405c-5.204-.897-8.696-5.85-7.799-11.055.897-5.206 5.85-8.696 11.053-7.799a9.564 9.564 0 0 1 7.799 11.053c-.897 5.204-5.848 8.696-11.053 7.799v.002z" style="" fill="#EBECEC" data-original="#ebecec" class=""></path><path d="m349.015 382.577 4.203.726 2.26-13.09-4.203-.726-2.26 13.09z" style="" fill="#FEFEFE" data-original="#fefefe" class=""></path><path d="m208.24 412.697 7.876-1.563a12.377 12.377 0 0 0 7.887-5.279c1.764-2.644 2.531-5.957 1.865-9.305l-9.263-46.667c-3.497-17.61-17.273-26.59-33.015-28.581-6.032-.763-12.356-.485-18.483.728-6.132 1.213-12.076 3.369-17.357 6.376-13.754 7.834-23.023 21.378-19.522 39.016l9.263 46.669a12.383 12.383 0 0 0 5.281 7.885l.007-.002a12.354 12.354 0 0 0 9.3 1.867l7.872-1.563-.644-3.246-7.874 1.563a9.085 9.085 0 0 1-6.822-1.367l.002-.002a9.084 9.084 0 0 1-3.874-5.781l-9.263-46.669c-3.177-16.005 5.316-28.341 17.901-35.504 4.974-2.835 10.583-4.868 16.373-6.017 5.79-1.147 11.752-1.406 17.434-.688 14.409 1.821 27.009 9.981 30.178 25.955l9.265 46.669a9.093 9.093 0 0 1-1.371 6.822 9.073 9.073 0 0 1-5.784 3.869l-7.876 1.563.644 3.246v.005z" style="" fill="#21D0C3" data-original="#21d0c3" class=""></path><path d="m219.104 356.799-1.415-7.128c-3.603-18.156-17.777-27.41-33.961-29.459-6.149-.776-12.589-.498-18.831.741-6.242 1.235-12.301 3.435-17.682 6.497-14.146 8.056-23.674 22.002-20.064 40.19l1.417 7.128 5.406-1.076-1.415-7.128c-3.067-15.458 5.168-27.393 17.361-34.336 4.874-2.774 10.37-4.765 16.047-5.891 5.675-1.127 11.52-1.38 17.087-.677 13.961 1.764 26.167 9.65 29.232 25.082l1.415 7.128 5.408-1.074-.005.003z" style="" fill="#4D4D4D" data-original="#4d4d4d" class=""></path><path d="m153.704 424.235 4.214-.837a4.627 4.627 0 1 0-.91-4.59l-4.211.835.91 4.59-.003.002zM211.588 412.746l-4.209.837a4.628 4.628 0 1 1-5.273-6.056 4.63 4.63 0 0 1 4.361 1.466l4.211-.837.91 4.59z" style="" fill="#076673" data-original="#076673"></path><path d="m167.458 320.532-1.607-8.096-3.195.635-3.191.633 1.625 8.176a43.305 43.305 0 0 1 6.368-1.348z" style="" fill="#666666" data-original="#666666" class=""></path><path d="M160.566 419.73a1.4 1.4 0 1 0-1.645-1.103 1.398 1.398 0 0 0 1.645 1.1v.003zM202.219 411.446a1.398 1.398 0 0 0 1.098-1.643 1.4 1.4 0 1 0-1.098 1.643z" style="" fill="#0F7986" data-original="#0f7986" class=""></path><path d="M347.379 400.317c-4.923-.849-8.224-5.53-7.376-10.456a9.042 9.042 0 0 1 10.451-7.373c4.923.849 8.226 5.53 7.376 10.451-.851 4.923-5.532 8.226-10.453 7.378h.002z" style="" fill="#FEFEFE" data-original="#fefefe" class=""></path><path d="M206.431 268.717c-.141.002-49.86.414-41.462 43.912l-4.624.884c-9.467-49.038 45.874-49.49 46.031-49.492l.055 4.696zM305.643 264.243c8.112.219 23.792 2.43 35.862 17.111 11.811 14.367 20.091 40.752 13.9 89.128l-4.661-.589c5.993-46.822-1.751-72.032-12.865-85.554-10.859-13.211-25.018-15.202-32.343-15.399l.11-4.697h-.003z" style="" fill="#4D4D4D" data-original="#4d4d4d" class=""></path></g></svg>