<svg xmlns="http://www.w3.org/2000/svg" version="1.1" xmlns:xlink="http://www.w3.org/1999/xlink" xmlns:svgjs="http://svgjs.com/svgjs" width="512" height="512" x="0" y="0" viewBox="0 0 64 64" style="enable-background:new 0 0 512 512" xml:space="preserve" class=""><g><g data-name="29-cure"><circle cx="32" cy="32" r="22" fill="#F8EAD3" data-original="#f8ead3" class=""></circle><circle cx="32" cy="32" r="18" fill="#E6294F" data-original="#e6294f" class=""></circle><path fill="#F8EAD3" d="M44 28h-8v-8h-8v8h-8v8h8v8h8v-8h8z" data-original="#f8ead3" class=""></path><path fill="#71D6FC" d="M17 8s-6 2-8 7c-2-5-8-7-8-7s6-2 8-7c2 5 8 7 8 7zM63 56s-6 2-8 7c-2-5-8-7-8-7s6-2 8-7c2 5 8 7 8 7z" data-original="#71d6fc" class=""></path><g fill="#32ADDB"><path d="M49 10a1 1 0 0 1-1-1V3a1 1 0 0 1 2 0v6a1 1 0 0 1-1 1z" fill="#32ADDB" data-original="#32addb"></path><path d="M52 7h-6a1 1 0 0 1 0-2h6a1 1 0 0 1 0 2zM59 22a1 1 0 0 1-1-1v-6a1 1 0 0 1 2 0v6a1 1 0 0 1-1 1z" fill="#32ADDB" data-original="#32addb"></path><path d="M62 19h-6a1 1 0 0 1 0-2h6a1 1 0 0 1 0 2zM6 50a1 1 0 0 1-1-1v-6a1 1 0 0 1 2 0v6a1 1 0 0 1-1 1z" fill="#32ADDB" data-original="#32addb"></path><path d="M9 47H3a1 1 0 0 1 0-2h6a1 1 0 0 1 0 2zM14 62a1 1 0 0 1-1-1v-6a1 1 0 0 1 2 0v6a1 1 0 0 1-1 1z" fill="#32ADDB" data-original="#32addb"></path><path d="M17 59h-6a1 1 0 0 1 0-2h6a1 1 0 0 1 0 2z" fill="#32ADDB" data-original="#32addb"></path></g></g></g></svg>