<svg xmlns="http://www.w3.org/2000/svg" version="1.1" xmlns:xlink="http://www.w3.org/1999/xlink" xmlns:svgjs="http://svgjs.com/svgjs" width="512" height="512" x="0" y="0" viewBox="0 0 598 598" style="enable-background:new 0 0 512 512" xml:space="preserve"><g><path fill="#FF4B37" d="M523.25 233.781c0 62.042-25.135 118.105-65.687 158.75L335.814 514.373 299 551.281l-36.441-36.534h-.093L140.437 392.531c-40.552-40.645-65.687-96.708-65.687-158.75C74.75 109.882 175.195 9.344 299 9.344s224.25 100.538 224.25 224.437zm-56.062-.187c0-92.877-75.311-168.188-168.188-168.188s-168.188 75.311-168.188 168.188S206.123 401.781 299 401.781s168.188-75.31 168.188-168.187z" data-original="#ff4b37"></path><path fill="#A7E060" d="M336.282 514.841c74.937 3.737 130.906 18.688 130.906 36.441 0 20.65-75.311 37.375-168.188 37.375s-168.188-16.725-168.188-37.375c0-17.847 56.249-32.797 131.653-36.534h.093L299 551.281l36.814-36.908z" data-original="#a7e060"></path><path fill="#F5F5F5" d="M299 65.406c92.877 0 168.188 75.311 168.188 168.188S391.877 401.781 299 401.781 130.812 326.47 130.812 233.593 206.123 65.406 299 65.406zm93.438 205.563v-74.75h-56.062v-56.062h-74.75v56.062h-56.062v74.75h56.062v56.062h74.75v-56.062z" data-original="#f5f5f5"></path><path fill="#FF4B37" d="M392.438 196.219v74.75h-56.063v56.062h-74.75v-56.062h-56.063v-74.75h56.063v-56.063h74.75v56.063z" data-original="#ff4b37"></path><path fill="#373737" d="M299 560.625a9.345 9.345 0 0 1-6.615-2.745l-35.701-35.792a9.405 9.405 0 0 1-.829-.739l-122.03-122.216c-44.121-44.222-68.419-102.944-68.419-165.352C65.406 104.874 170.196 0 299 0s233.594 104.874 233.594 233.781c0 62.408-24.297 121.13-68.416 165.35L342.424 520.978l-36.808 36.902a9.349 9.349 0 0 1-6.616 2.745zm-30.663-53.222c.29.229.57.478.837.746L299 538.05l30.198-30.275 121.755-121.849c40.594-40.687 62.953-94.722 62.953-152.146C513.906 115.178 417.5 18.688 299 18.688S84.094 115.178 84.094 233.781c0 57.424 22.359 111.459 62.957 152.151z" data-original="#373737"></path><path fill="#373737" d="M299 411.125c-97.891 0-177.531-79.64-177.531-177.531S201.109 56.063 299 56.063c97.892 0 177.531 79.64 177.531 177.531S396.892 411.125 299 411.125zm0-336.375c-87.587 0-158.844 71.257-158.844 158.844 0 87.586 71.257 158.844 158.844 158.844 87.586 0 158.844-71.258 158.844-158.844 0-87.587-71.258-158.844-158.844-158.844z" data-original="#373737"></path><path fill="#373737" d="M336.375 336.375h-74.75a9.344 9.344 0 0 1-9.344-9.344v-46.719h-46.719a9.343 9.343 0 0 1-9.344-9.344v-74.75a9.343 9.343 0 0 1 9.344-9.344h46.719v-46.719a9.343 9.343 0 0 1 9.344-9.344h74.75a9.344 9.344 0 0 1 9.344 9.344v46.719h46.719a9.344 9.344 0 0 1 9.344 9.344v74.75a9.344 9.344 0 0 1-9.344 9.344h-46.719v46.719a9.345 9.345 0 0 1-9.344 9.344zm-65.406-18.687h56.062v-46.719a9.344 9.344 0 0 1 9.344-9.344h46.719v-56.062h-46.719a9.344 9.344 0 0 1-9.344-9.344V149.5h-56.062v46.719a9.343 9.343 0 0 1-9.344 9.344h-46.719v56.062h46.719a9.343 9.343 0 0 1 9.344 9.344zM299 598c-45.586 0-88.54-3.966-120.949-11.166-38.074-8.46-56.582-20.088-56.582-35.552 0-13.726 14.532-24.379 44.425-32.57 24.518-6.718 58.651-11.44 96.11-13.297 5.317-.261 9.853 4.018 9.852 9.332 0 5.104-4.046 9.251-9.127 9.343-34.371 1.713-65.92 5.915-88.848 11.835-25.19 6.503-32.812 13.251-33.685 15.358 1.048 2.599 11.153 10.886 45.359 18.053 30.709 6.434 70.998 9.977 113.446 9.977 42.447 0 82.736-3.543 113.446-9.977 34.181-7.162 44.297-15.443 45.357-18.049-.896-2.107-8.52-8.824-33.543-15.299-22.853-5.915-54.263-10.11-88.444-11.815-5.154-.258-9.124-4.643-8.867-9.798.258-5.154 4.657-9.137 9.798-8.867 37.22 1.857 71.159 6.576 95.567 13.288 29.754 8.183 44.217 18.808 44.217 32.485 0 15.464-18.508 27.093-56.583 35.552C387.54 594.034 344.586 598 299 598z" data-original="#373737"></path></g></svg>