<svg xmlns="http://www.w3.org/2000/svg" version="1.1" xmlns:xlink="http://www.w3.org/1999/xlink" xmlns:svgjs="http://svgjs.com/svgjs" width="512" height="512" x="0" y="0" viewBox="0 0 512 512" style="enable-background:new 0 0 512 512" xml:space="preserve" class=""><defs><linearGradient id="a" x1="-34.107" x2="-34.107" y1="645.691" y2="622.003" gradientTransform="matrix(20.48 0 0 -20.48 954.52 13234.44)" gradientUnits="userSpaceOnUse"><stop offset="0" style="stop-color:#FF9400"></stop><stop offset="1" style="stop-color:#FF5F39"></stop></linearGradient></defs><g><linearGradient id="a" x1="-34.107" x2="-34.107" y1="645.691" y2="622.003" gradientTransform="matrix(20.48 0 0 -20.48 954.52 13234.44)" gradientUnits="userSpaceOnUse"><stop offset="0" style="stop-color:#FF9400"></stop><stop offset="1" style="stop-color:#FF5F39"></stop></linearGradient><path d="M296.182 382.792a10.24 10.24 0 0 1-9.462 6.328h-61.44a10.24 10.24 0 0 1-9.462-6.328 10.263 10.263 0 0 1 2.232-11.162l17.469-17.469V239.759l-17.469-17.49a10.26 10.26 0 0 1-2.232-11.162c1.577-3.83 5.325-6.308 9.462-6.308h40.96a10.23 10.23 0 0 1 10.24 10.24V354.16l17.49 17.469a10.295 10.295 0 0 1 2.212 11.163M256 122.88c16.937 0 30.72 13.763 30.72 30.72 0 16.937-13.783 30.72-30.72 30.72s-30.72-13.783-30.72-30.72c0-16.957 13.783-30.72 30.72-30.72M256 0C114.852 0 0 114.831 0 256c0 141.148 114.852 256 256 256 141.169 0 256-114.852 256-256C512 114.831 397.169 0 256 0" style="" fill="url(&quot;#a&quot;)"></path></g></svg>