<svg xmlns="http://www.w3.org/2000/svg" version="1.1" xmlns:xlink="http://www.w3.org/1999/xlink" xmlns:svgjs="http://svgjs.com/svgjs" width="512" height="512" x="0" y="0" viewBox="0 0 64 64" style="enable-background:new 0 0 512 512" xml:space="preserve"><g><path fill="#FFAC96" d="m15.71 30.27-4.53-13.05a3.125 3.125 0 0 0-3.56-2.32 3.007 3.007 0 0 0-2.28 3.71L10 33zM48.29 30.27l4.53-13.05a3.125 3.125 0 0 1 3.56-2.32 3.007 3.007 0 0 1 2.28 3.71L54 33z" data-original="#ffac96"></path><path fill="#FFBCAB" d="m25.046 35.682-8.84-5.182a2.994 2.994 0 0 0-3.8.679L9.18 21.22a3.125 3.125 0 0 0-3.56-2.32 3.007 3.007 0 0 0-2.28 3.71l4.35 16.23A3.948 3.948 0 0 0 8.9 40.8l6.76 6.01A4 4 0 0 1 17 49.8V53h12V42.584a8 8 0 0 0-3.954-6.902zM58.38 18.9a3.125 3.125 0 0 0-3.56 2.32l-3.23 9.959a2.994 2.994 0 0 0-3.8-.679l-8.84 5.182A8 8 0 0 0 35 42.584V53h12v-3.2a4 4 0 0 1 1.34-2.99l6.76-6.01a3.948 3.948 0 0 0 1.21-1.96l4.35-16.23a3.007 3.007 0 0 0-2.28-3.71z" data-original="#ffbcab"></path><path fill="#006DF0" d="M34 53v8h14v-8H35zM30 53H16v8h14z" data-original="#006df0"></path><path fill="#D80027" d="m45.44 18.56-.71.71L32 32 19.27 19.27l-.71-.71A9 9 0 1 1 31.29 5.84l.71.71.71-.71a9 9 0 1 1 12.73 12.72z" data-original="#d80027"></path><path fill="#BD0022" d="M45.44 5.84a8.9 8.9 0 0 0-7.368-2.579 8.994 8.994 0 0 1 5.368 15.3l-.71.71L31 31l1 1 12.73-12.73.71-.71a9 9 0 0 0 0-12.72z" data-original="#bd0022"></path><path fill="#F1F2F2" d="M34 22v-4h4v-4h-4v-4h-4v4h-4v4h4v4z" data-original="#f1f2f2"></path><g fill="#FFAC96"><path d="m50.794 33.7-6.684 3.7a.867.867 0 0 0-.341 1.138.865.865 0 0 0 1.207.362l5.818-3.2a3 3 0 0 0 1.319-3.609 2.971 2.971 0 0 1-1.319 1.609zM13.206 33.7l6.684 3.7a.867.867 0 0 1 .341 1.138.865.865 0 0 1-1.207.362l-5.818-3.2a3 3 0 0 1-1.319-3.609 2.971 2.971 0 0 0 1.319 1.609z" fill="#FFAC96" data-original="#ffac96"></path></g></g></svg>