<svg xmlns="http://www.w3.org/2000/svg" version="1.1" xmlns:xlink="http://www.w3.org/1999/xlink" xmlns:svgjs="http://svgjs.com/svgjs" width="512" height="512" x="0" y="0" viewBox="0 0 512 512" style="enable-background:new 0 0 512 512" xml:space="preserve" class=""><g transform="matrix(1,0,0,1,70,0)"><path d="M185.438 0C83.188 0 0 83.188 0 185.438c0 59.066 29.629 130.347 88.066 211.87 42.86 59.794 85.079 102.208 86.856 103.981L185.632 512l10.513-10.902c1.773-1.84 43.917-45.73 86.718-106.235 58.403-82.554 88.016-153.015 88.016-209.426C370.879 83.187 287.69 0 185.438 0zm0 308.383c-67.79 0-122.946-55.153-122.946-122.945 0-67.79 55.156-122.946 122.946-122.946 67.792 0 122.945 55.153 122.945 122.946S253.23 308.382 185.438 308.382zm0 0" fill="#FFFFFF" data-original="#000000" class=""></path><path d="M185.438 92.238c-51.391 0-93.2 41.809-93.2 93.2s41.809 93.203 93.2 93.203c51.394 0 93.203-41.813 93.203-93.204s-41.809-93.199-93.204-93.199zm46.796 107.563h-31.922v31.926h-29.746V199.8h-31.921v-29.742h31.921v-31.922h29.746v31.922h31.922zm0 0" fill="#FFFFFF" data-original="#000000" class=""></path></g></svg>