<svg xmlns="http://www.w3.org/2000/svg" version="1.1" xmlns:xlink="http://www.w3.org/1999/xlink" xmlns:svgjs="http://svgjs.com/svgjs" width="512" height="512" x="0" y="0" viewBox="0 0 511.739 511.739" style="enable-background:new 0 0 512 512" xml:space="preserve" class=""><g><path fill="#FF405C" d="M486.729 256.88c-.1.1.324 0-1.27 0-16.802 0-28.416 15.581-22.56 30.1-2.82 2.972 9.349-9.192-196.45 195.53a14.993 14.993 0 0 1-21.16 0C39.553 277.84 51.688 289.982 48.84 286.98c6.088-15.095-6.639-30.907-23.81-30.069-.01-.011-.01-.021-.02-.03C7.979 230.27-.57 201.4.03 171.77 2.355 55.475 144.268-30.274 255.87 67.34c111.539-97.56 253.514-11.926 255.84 104.43.6 29.63-7.95 58.5-24.981 85.11z" data-original="#ff405c" class=""></path><path fill="#C30047" d="M486.729 256.88c-.1.1.324 0-1.27 0-16.802 0-28.416 15.581-22.56 30.1-2.82 2.972 9.349-9.192-196.45 195.53a14.964 14.964 0 0 1-10.58 4.37V67.34c69.474-60.766 156.156-53.005 211.37 2.19 49.097 49.097 60.413 123.407 19.49 187.35z" data-original="#c30047" class=""></path><path fill="#E1F3FF" d="M486.729 256.88c-6.63 10.37-14.55 20.4-23.73 30H351.87c-5.52 0-10.59-3.03-13.21-7.89l-41.93-77.88-59.3 125.19c-5.021 10.599-19.863 11.635-26.21 1.63l-42.97-67.52-11.52 19.189a14.985 14.985 0 0 1-12.86 7.28H48.74c-9.18-9.6-17.1-19.63-23.73-30h110.37l19.63-32.72c5.676-9.482 19.479-9.821 25.51-.33l41.42 65.08 60.37-127.45c5.285-11.113 20.936-11.491 26.77-.69l51.75 96.11h125.899z" data-original="#e1f3ff"></path><path fill="#B1D5F1" d="M309.08 160.77c-5.823-10.779-21.476-10.442-26.77.69l-26.44 55.818v70.093l40.86-86.261 41.93 77.88a15.008 15.008 0 0 0 13.21 7.89H463c9.18-9.6 17.1-19.63 23.73-30h-125.9z" data-original="#b1d5f1" class=""></path></g></svg>