<svg xmlns="http://www.w3.org/2000/svg" version="1.1" xmlns:xlink="http://www.w3.org/1999/xlink" xmlns:svgjs="http://svgjs.com/svgjs" width="512" height="512" x="0" y="0" viewBox="0 0 512 512" style="enable-background:new 0 0 512 512" xml:space="preserve" class=""><g><g fill-rule="evenodd" clip-rule="evenodd"><path fill="#FD4755" d="M445.658 472.836c-34.549 21.645-84.592 20.954-139.119 1.281-52.736-19.027-110.004-55.835-161.413-107.244C93.717 315.465 56.91 258.197 37.883 205.461 18.21 150.934 17.52 100.891 39.164 66.342l1.094-1.438 32.001-32.001c6.584-6.583 15.254-9.876 23.916-9.876 8.663 0 17.332 3.292 23.916 9.876l78.364 78.364c6.584 6.584 9.876 15.254 9.876 23.916 0 8.663-3.292 17.332-9.875 23.916l-31.19 31.191c-5.392 11.049-3.848 27.543 3.501 46.108 7.94 20.056 22.589 42.032 42.696 62.139s42.082 34.756 62.138 42.696c18.565 7.349 35.06 8.893 46.109 3.502l31.19-31.19c6.584-6.583 15.253-9.876 23.916-9.876s17.332 3.292 23.916 9.876l78.364 78.364c6.584 6.584 9.876 15.253 9.876 23.917 0 8.663-3.292 17.332-9.876 23.916l-32.001 32.001z" data-original="#fd4755" class=""></path><path fill="#E4404D" d="m56.663 48.499 15.595-15.595c6.584-6.583 15.254-9.876 23.916-9.876 8.663 0 17.332 3.292 23.916 9.876l78.364 78.364c6.584 6.584 9.876 15.254 9.876 23.916 0 8.663-3.292 17.332-9.875 23.916l-31.19 31.191c-5.392 11.049-3.848 27.543 3.501 46.108 7.94 20.056 22.589 42.032 42.696 62.139s42.082 34.756 62.138 42.696c18.565 7.349 35.06 8.893 46.108 3.502l-15.595 15.595c-11.049 5.392-27.543 3.848-46.109-3.502-20.056-7.94-42.031-22.589-62.138-42.696s-34.756-42.083-42.696-62.139c-7.349-18.565-8.893-35.059-3.501-46.108l31.19-31.191c6.583-6.583 9.875-15.253 9.875-23.916s-3.292-17.332-9.876-23.916l-78.364-78.364c-6.584-6.583-15.253-9.876-23.916-9.876-8.661 0-17.331 3.293-23.915 9.876zm280.652 280.63 15.584-15.584c6.584-6.583 15.253-9.876 23.916-9.876s17.332 3.292 23.916 9.876l78.364 78.364c6.584 6.584 9.876 15.253 9.876 23.917 0 8.663-3.292 17.332-9.876 23.916L463.5 455.337c6.584-6.584 9.876-15.253 9.876-23.916s-3.292-17.332-9.876-23.917l-78.364-78.364c-6.584-6.583-15.253-9.876-23.916-9.876-8.657 0-17.322 3.289-23.905 9.865z" data-original="#e4404d"></path></g></g></svg>